<mxfile host="Electron" modified="2024-04-30T02:41:31.542Z" agent="Mozilla/5.0 (X11; Linux x86_64) AppleWebKit/537.36 (KHTML, like Gecko) draw.io/23.0.2 Chrome/120.0.6099.109 Electron/28.1.0 Safari/537.36" etag="qkB7kVFTHtyUtQSAD169" version="23.0.2" type="device">
  <diagram name="Page-1" id="9ny0syHoKkmh2-WJzfzL">
    <mxGraphModel dx="1195" dy="699" grid="1" gridSize="10" guides="1" tooltips="1" connect="1" arrows="1" fold="1" page="1" pageScale="1" pageWidth="850" pageHeight="1100" math="0" shadow="0">
      <root>
        <mxCell id="0" />
        <mxCell id="1" parent="0" />
        <mxCell id="a8fwbPMNXaL5KplJFtij-2" style="edgeStyle=orthogonalEdgeStyle;rounded=0;orthogonalLoop=1;jettySize=auto;html=1;" edge="1" parent="1" source="a8fwbPMNXaL5KplJFtij-3" target="a8fwbPMNXaL5KplJFtij-5">
          <mxGeometry relative="1" as="geometry" />
        </mxCell>
        <mxCell id="a8fwbPMNXaL5KplJFtij-27" style="edgeStyle=orthogonalEdgeStyle;rounded=0;orthogonalLoop=1;jettySize=auto;html=1;" edge="1" parent="1" source="a8fwbPMNXaL5KplJFtij-3" target="a8fwbPMNXaL5KplJFtij-10">
          <mxGeometry relative="1" as="geometry">
            <Array as="points">
              <mxPoint x="50" y="660" />
              <mxPoint x="50" y="810" />
            </Array>
          </mxGeometry>
        </mxCell>
        <mxCell id="a8fwbPMNXaL5KplJFtij-3" value="User" style="shape=umlActor;verticalLabelPosition=bottom;verticalAlign=top;html=1;outlineConnect=0;" vertex="1" parent="1">
          <mxGeometry x="73" y="630" width="30" height="60" as="geometry" />
        </mxCell>
        <mxCell id="a8fwbPMNXaL5KplJFtij-4" style="edgeStyle=orthogonalEdgeStyle;rounded=0;orthogonalLoop=1;jettySize=auto;html=1;fillColor=#0050ef;strokeColor=#001DBC;" edge="1" parent="1" source="a8fwbPMNXaL5KplJFtij-5" target="a8fwbPMNXaL5KplJFtij-8">
          <mxGeometry relative="1" as="geometry">
            <Array as="points">
              <mxPoint x="420" y="650" />
              <mxPoint x="420" y="650" />
            </Array>
          </mxGeometry>
        </mxCell>
        <mxCell id="a8fwbPMNXaL5KplJFtij-5" value="Web page" style="rounded=0;whiteSpace=wrap;html=1;" vertex="1" parent="1">
          <mxGeometry x="233" y="630" width="120" height="60" as="geometry" />
        </mxCell>
        <mxCell id="a8fwbPMNXaL5KplJFtij-6" style="edgeStyle=orthogonalEdgeStyle;rounded=0;orthogonalLoop=1;jettySize=auto;html=1;" edge="1" parent="1" source="a8fwbPMNXaL5KplJFtij-8" target="a8fwbPMNXaL5KplJFtij-10">
          <mxGeometry relative="1" as="geometry">
            <Array as="points">
              <mxPoint x="543" y="740" />
              <mxPoint x="543" y="740" />
            </Array>
          </mxGeometry>
        </mxCell>
        <mxCell id="a8fwbPMNXaL5KplJFtij-7" style="edgeStyle=orthogonalEdgeStyle;rounded=0;orthogonalLoop=1;jettySize=auto;html=1;fillColor=#0050ef;strokeColor=#001DBC;" edge="1" parent="1" source="a8fwbPMNXaL5KplJFtij-8" target="a8fwbPMNXaL5KplJFtij-15">
          <mxGeometry relative="1" as="geometry">
            <Array as="points">
              <mxPoint x="560" y="580" />
              <mxPoint x="560" y="580" />
            </Array>
          </mxGeometry>
        </mxCell>
        <mxCell id="a8fwbPMNXaL5KplJFtij-26" style="edgeStyle=orthogonalEdgeStyle;rounded=0;orthogonalLoop=1;jettySize=auto;html=1;endArrow=classic;endFill=1;startArrow=classic;startFill=1;" edge="1" parent="1" source="a8fwbPMNXaL5KplJFtij-8" target="a8fwbPMNXaL5KplJFtij-10">
          <mxGeometry relative="1" as="geometry">
            <Array as="points">
              <mxPoint x="430" y="670" />
              <mxPoint x="430" y="810" />
            </Array>
          </mxGeometry>
        </mxCell>
        <mxCell id="a8fwbPMNXaL5KplJFtij-8" value="Luiquidity contract" style="rounded=0;whiteSpace=wrap;html=1;" vertex="1" parent="1">
          <mxGeometry x="483" y="630" width="120" height="60" as="geometry" />
        </mxCell>
        <mxCell id="a8fwbPMNXaL5KplJFtij-10" value="FT contract" style="rounded=0;whiteSpace=wrap;html=1;" vertex="1" parent="1">
          <mxGeometry x="483" y="780" width="120" height="60" as="geometry" />
        </mxCell>
        <mxCell id="a8fwbPMNXaL5KplJFtij-11" value="unstake" style="text;html=1;align=center;verticalAlign=middle;resizable=0;points=[];autosize=1;strokeColor=none;fillColor=none;" vertex="1" parent="1">
          <mxGeometry x="128" y="660" width="70" height="30" as="geometry" />
        </mxCell>
        <mxCell id="a8fwbPMNXaL5KplJFtij-12" value="burn 1:1 gVARA" style="text;html=1;align=center;verticalAlign=middle;resizable=0;points=[];autosize=1;strokeColor=none;fillColor=none;" vertex="1" parent="1">
          <mxGeometry x="543" y="720" width="110" height="30" as="geometry" />
        </mxCell>
        <mxCell id="a8fwbPMNXaL5KplJFtij-13" value="transfer gVARA to contract" style="text;html=1;align=center;verticalAlign=middle;resizable=0;points=[];autosize=1;strokeColor=none;fillColor=none;" vertex="1" parent="1">
          <mxGeometry x="270" y="730" width="160" height="30" as="geometry" />
        </mxCell>
        <mxCell id="a8fwbPMNXaL5KplJFtij-14" style="edgeStyle=orthogonalEdgeStyle;rounded=0;orthogonalLoop=1;jettySize=auto;html=1;fillColor=#0050ef;strokeColor=#001DBC;" edge="1" parent="1" source="a8fwbPMNXaL5KplJFtij-15" target="a8fwbPMNXaL5KplJFtij-17">
          <mxGeometry relative="1" as="geometry" />
        </mxCell>
        <mxCell id="a8fwbPMNXaL5KplJFtij-24" style="edgeStyle=orthogonalEdgeStyle;rounded=0;orthogonalLoop=1;jettySize=auto;html=1;fillColor=#60a917;strokeColor=#2D7600;" edge="1" parent="1" source="a8fwbPMNXaL5KplJFtij-15" target="a8fwbPMNXaL5KplJFtij-8">
          <mxGeometry relative="1" as="geometry">
            <Array as="points">
              <mxPoint x="530" y="570" />
              <mxPoint x="530" y="570" />
            </Array>
          </mxGeometry>
        </mxCell>
        <mxCell id="a8fwbPMNXaL5KplJFtij-15" value="off-chain server" style="rounded=0;whiteSpace=wrap;html=1;" vertex="1" parent="1">
          <mxGeometry x="488" y="410" width="120" height="60" as="geometry" />
        </mxCell>
        <mxCell id="a8fwbPMNXaL5KplJFtij-16" value="unstake signal" style="text;html=1;align=center;verticalAlign=middle;resizable=0;points=[];autosize=1;strokeColor=none;fillColor=none;" vertex="1" parent="1">
          <mxGeometry x="560" y="560" width="100" height="30" as="geometry" />
        </mxCell>
        <mxCell id="a8fwbPMNXaL5KplJFtij-22" style="edgeStyle=orthogonalEdgeStyle;rounded=0;orthogonalLoop=1;jettySize=auto;html=1;fillColor=#60a917;strokeColor=#2D7600;" edge="1" parent="1" source="a8fwbPMNXaL5KplJFtij-17" target="a8fwbPMNXaL5KplJFtij-15">
          <mxGeometry relative="1" as="geometry">
            <Array as="points">
              <mxPoint x="445" y="240.0000000000001" />
              <mxPoint x="445" y="440" />
            </Array>
          </mxGeometry>
        </mxCell>
        <mxCell id="a8fwbPMNXaL5KplJFtij-17" value="stakin pallet" style="rounded=0;whiteSpace=wrap;html=1;" vertex="1" parent="1">
          <mxGeometry x="488" y="210" width="120" height="60" as="geometry" />
        </mxCell>
        <mxCell id="a8fwbPMNXaL5KplJFtij-18" value="unstake VARA" style="text;html=1;align=center;verticalAlign=middle;resizable=0;points=[];autosize=1;strokeColor=none;fillColor=none;" vertex="1" parent="1">
          <mxGeometry x="548" y="330" width="100" height="30" as="geometry" />
        </mxCell>
        <mxCell id="a8fwbPMNXaL5KplJFtij-20" value="validate user balance&lt;br&gt;store and update unstake information&lt;br&gt;store transaction" style="text;html=1;align=left;verticalAlign=middle;resizable=0;points=[];autosize=1;strokeColor=none;fillColor=none;" vertex="1" parent="1">
          <mxGeometry x="610" y="630" width="220" height="60" as="geometry" />
        </mxCell>
        <mxCell id="a8fwbPMNXaL5KplJFtij-21" value="unstake action" style="text;html=1;align=center;verticalAlign=middle;resizable=0;points=[];autosize=1;strokeColor=none;fillColor=none;" vertex="1" parent="1">
          <mxGeometry x="368" y="620" width="100" height="30" as="geometry" />
        </mxCell>
        <mxCell id="a8fwbPMNXaL5KplJFtij-23" value="liberation era" style="text;html=1;align=center;verticalAlign=middle;resizable=0;points=[];autosize=1;strokeColor=none;fillColor=none;" vertex="1" parent="1">
          <mxGeometry x="350" y="330" width="90" height="30" as="geometry" />
        </mxCell>
        <mxCell id="a8fwbPMNXaL5KplJFtij-25" value="unstake informacion" style="text;html=1;align=center;verticalAlign=middle;resizable=0;points=[];autosize=1;strokeColor=none;fillColor=none;" vertex="1" parent="1">
          <mxGeometry x="400" y="520" width="130" height="30" as="geometry" />
        </mxCell>
        <mxCell id="a8fwbPMNXaL5KplJFtij-28" value="approve gVARA transfer to contract" style="text;html=1;align=center;verticalAlign=middle;resizable=0;points=[];autosize=1;strokeColor=none;fillColor=none;" vertex="1" parent="1">
          <mxGeometry x="170" y="810" width="210" height="30" as="geometry" />
        </mxCell>
      </root>
    </mxGraphModel>
  </diagram>
</mxfile>
